<svg version="1.1" xmlns="http://www.w3.org/2000/svg" xmlns:xlink="http://www.w3.org/1999/xlink" width="32px" height="32px" viewBox="0,0,256,256"><g fill="#ffffff" fill-rule="nonzero" stroke="none" stroke-width="1" stroke-linecap="butt" stroke-linejoin="miter" stroke-miterlimit="10" stroke-dasharray="" stroke-dashoffset="0" font-family="none" font-weight="none" font-size="none" text-anchor="none" style="mix-blend-mode: normal"><g transform="scale(8,8)"><path d="M11.5,6c-1.92187,0 -3.5,1.57813 -3.5,3.5c0,1.92188 1.57813,3.5 3.5,3.5c1.92188,0 3.5,-1.57812 3.5,-3.5c0,-1.92187 -1.57812,-3.5 -3.5,-3.5zM20.5,6c-1.92187,0 -3.5,1.57813 -3.5,3.5c0,1.92188 1.57813,3.5 3.5,3.5c1.92188,0 3.5,-1.57812 3.5,-3.5c0,-1.92187 -1.57812,-3.5 -3.5,-3.5zM11.5,8c0.83984,0 1.5,0.66016 1.5,1.5c0,0.83984 -0.66016,1.5 -1.5,1.5c-0.83984,0 -1.5,-0.66016 -1.5,-1.5c0,-0.83984 0.66016,-1.5 1.5,-1.5zM20.5,8c0.83984,0 1.5,0.66016 1.5,1.5c0,0.83984 -0.66016,1.5 -1.5,1.5c-0.83984,0 -1.5,-0.66016 -1.5,-1.5c0,-0.83984 0.66016,-1.5 1.5,-1.5zM7,12c-2.19922,0 -4,1.80078 -4,4c0,1.11328 0.47656,2.11719 1.21875,2.84375c-1.33203,0.90234 -2.21875,2.4375 -2.21875,4.15625h2c0,-1.66797 1.33203,-3 3,-3c1.66797,0 3,1.33203 3,3h2c0,-1.71875 -0.88672,-3.25391 -2.21875,-4.15625c0.74219,-0.72656 1.21875,-1.73047 1.21875,-2.84375c0,-2.19922 -1.80078,-4 -4,-4zM12,23c-0.625,0.83594 -1,1.88672 -1,3h2c0,-1.66797 1.33203,-3 3,-3c1.66797,0 3,1.33203 3,3h2c0,-1.11328 -0.375,-2.16406 -1,-3c-0.33984,-0.45312 -0.75,-0.83984 -1.21875,-1.15625c0.74219,-0.72656 1.21875,-1.73047 1.21875,-2.84375c0,-2.19922 -1.80078,-4 -4,-4c-2.19922,0 -4,1.80078 -4,4c0,1.11328 0.47656,2.11719 1.21875,2.84375c-0.46875,0.31641 -0.87891,0.70313 -1.21875,1.15625zM20,23h2c0,-1.66797 1.33203,-3 3,-3c1.66797,0 3,1.33203 3,3h2c0,-1.71875 -0.88672,-3.25391 -2.21875,-4.15625c0.74219,-0.72656 1.21875,-1.73047 1.21875,-2.84375c0,-2.19922 -1.80078,-4 -4,-4c-2.19922,0 -4,1.80078 -4,4c0,1.11328 0.47656,2.11719 1.21875,2.84375c-1.33203,0.90234 -2.21875,2.4375 -2.21875,4.15625zM7,14c1.11719,0 2,0.88281 2,2c0,1.11719 -0.88281,2 -2,2c-1.11719,0 -2,-0.88281 -2,-2c0,-1.11719 0.88281,-2 2,-2zM25,14c1.11719,0 2,0.88281 2,2c0,1.11719 -0.88281,2 -2,2c-1.11719,0 -2,-0.88281 -2,-2c0,-1.11719 0.88281,-2 2,-2zM16,17c1.11719,0 2,0.88281 2,2c0,1.11719 -0.88281,2 -2,2c-1.11719,0 -2,-0.88281 -2,-2c0,-1.11719 0.88281,-2 2,-2z"></path></g></g></svg>