<svg version="1.1" xmlns="http://www.w3.org/2000/svg" xmlns:xlink="http://www.w3.org/1999/xlink" width="128px" height="128px" viewBox="0,0,256,256"><g fill="#ffffff" fill-rule="nonzero" stroke="none" stroke-width="1" stroke-linecap="butt" stroke-linejoin="miter" stroke-miterlimit="10" stroke-dasharray="" stroke-dashoffset="0" font-family="none" font-weight="none" font-size="none" text-anchor="none" style="mix-blend-mode: normal"><g transform="scale(2,2)"><path d="M19,70c-1.7,0 -3,-1.3 -3,-3v-6c0,-1.7 1.3,-3 3,-3c1.7,0 3,1.3 3,3v6c0,1.7 -1.4,3 -3,3zM44.1,107.5c-0.5,0 -1,-0.1 -1.5,-0.4l-5.2,-3c-1.4,-0.8 -1.9,-2.7 -1.1,-4.1c0.8,-1.4 2.7,-1.9 4.1,-1.1l5.2,3c1.4,0.8 1.9,2.7 1.1,4.1c-0.6,1 -1.6,1.5 -2.6,1.5zM83.9,107.5c-1,0 -2,-0.5 -2.6,-1.5c-0.8,-1.4 -0.3,-3.3 1.1,-4.1l5.2,-3c1.4,-0.8 3.3,-0.3 4.1,1.1c0.8,1.4 0.3,3.3 -1.1,4.1l-5.2,3c-0.5,0.3 -1,0.4 -1.5,0.4zM109,70c-1.7,0 -3,-1.3 -3,-3v-6c0,-1.7 1.3,-3 3,-3c1.7,0 3,1.3 3,3v6c0,1.7 -1.3,3 -3,3zM89.1,29.5c-0.5,0 -1,-0.1 -1.5,-0.4l-5.2,-3c-1.4,-0.8 -1.9,-2.7 -1.1,-4.1c0.8,-1.4 2.7,-1.9 4.1,-1.1l5.2,3c1.4,0.8 1.9,2.7 1.1,4.1c-0.5,1 -1.6,1.5 -2.6,1.5zM38.9,29.5c-1,0 -2,-0.5 -2.6,-1.5c-0.8,-1.4 -0.3,-3.3 1.1,-4.1l5.2,-3c1.4,-0.8 3.3,-0.3 4.1,1.1c0.8,1.4 0.3,3.3 -1.1,4.1l-5.2,3c-0.5,0.3 -1,0.4 -1.5,0.4zM64,26c-7.2,0 -13,-5.8 -13,-13c0,-7.2 5.8,-13 13,-13c7.2,0 13,5.8 13,13c0,7.2 -5.8,13 -13,13zM64,6c-3.9,0 -7,3.1 -7,7c0,3.9 3.1,7 7,7c3.9,0 7,-3.1 7,-7c0,-3.9 -3.1,-7 -7,-7zM64,128c-7.2,0 -13,-5.8 -13,-13c0,-7.2 5.8,-13 13,-13c7.2,0 13,5.8 13,13c0,7.2 -5.8,13 -13,13zM64,108c-3.9,0 -7,3.1 -7,7c0,3.9 3.1,7 7,7c3.9,0 7,-3.1 7,-7c0,-3.9 -3.1,-7 -7,-7zM109,103c-7.2,0 -13,-5.8 -13,-13c0,-7.2 5.8,-13 13,-13c7.2,0 13,5.8 13,13c0,7.2 -5.8,13 -13,13zM109,83c-3.9,0 -7,3.1 -7,7c0,3.9 3.1,7 7,7c3.9,0 7,-3.1 7,-7c0,-3.9 -3.1,-7 -7,-7zM109,51c-7.2,0 -13,-5.8 -13,-13c0,-7.2 5.8,-13 13,-13c7.2,0 13,5.8 13,13c0,7.2 -5.8,13 -13,13zM109,31c-3.9,0 -7,3.1 -7,7c0,3.9 3.1,7 7,7c3.9,0 7,-3.1 7,-7c0,-3.9 -3.1,-7 -7,-7zM19,51c-7.2,0 -13,-5.8 -13,-13c0,-7.2 5.8,-13 13,-13c7.2,0 13,5.8 13,13c0,7.2 -5.8,13 -13,13zM19,31c-3.9,0 -7,3.1 -7,7c0,3.9 3.1,7 7,7c3.9,0 7,-3.1 7,-7c0,-3.9 -3.1,-7 -7,-7zM19,103c-7.2,0 -13,-5.8 -13,-13c0,-7.2 5.8,-13 13,-13c7.2,0 13,5.8 13,13c0,7.2 -5.8,13 -13,13zM19,83c-3.9,0 -7,3.1 -7,7c0,3.9 3.1,7 7,7c3.9,0 7,-3.1 7,-7c0,-3.9 -3.1,-7 -7,-7zM64,67c-7.2,0 -13,-5.8 -13,-13c0,-7.2 5.8,-13 13,-13c7.2,0 13,5.8 13,13c0,7.2 -5.8,13 -13,13zM64,47c-3.9,0 -7,3.1 -7,7c0,3.9 3.1,7 7,7c3.9,0 7,-3.1 7,-7c0,-3.9 -3.1,-7 -7,-7zM46.6,87.1c-0.5,0 -1,-0.1 -1.5,-0.4c-1.4,-0.8 -1.9,-2.6 -1.1,-4.1c4.1,-7.1 11.7,-11.6 20,-11.6c8.3,0 15.9,4.5 20,11.7c0.8,1.4 0.3,3.3 -1.1,4.1c-1.4,0.8 -3.3,0.3 -4.1,-1.1c-3,-5.3 -8.7,-8.6 -14.8,-8.6c-6.1,0 -11.8,3.3 -14.8,8.6c-0.5,0.9 -1.6,1.4 -2.6,1.4z"></path></g></g></svg>